<svg width="28" height="28" viewBox="0 0 28 28" fill="none" xmlns="http://www.w3.org/2000/svg">
<path d="M10.9595 6.29297C11.35 5.90245 11.983 5.90245 12.3735 6.29297C12.7641 6.68349 12.7641 7.31651 12.3735 7.70703L7.08057 13H22.1665C22.7188 13 23.1665 13.4477 23.1665 14C23.1665 14.5523 22.7188 15 22.1665 15H7.08057L12.3735 20.293L12.4419 20.3691C12.7622 20.7619 12.7397 21.3409 12.3735 21.707C12.0074 22.0731 11.4284 22.0957 11.0356 21.7754L10.9595 21.707L3.95947 14.707C3.77194 14.5195 3.6665 14.2652 3.6665 14C3.6665 13.7348 3.77194 13.4805 3.95947 13.293L10.9595 6.29297Z" fill="#19191F"/>
</svg>
