<svg width="24" height="24" viewBox="0 0 24 24" fill="none" xmlns="http://www.w3.org/2000/svg">
<g clip-path="url(#clip0_232_1367)">
<circle cx="12" cy="12" r="12" fill="#FFE1DF"/>
<path d="M11.9988 18.7142C13.9344 17.2248 17.9333 14.3989 18.2428 11.041C18.2537 10.9202 18.2593 10.7979 18.2593 10.6741C18.2593 8.6061 16.7041 6.92969 14.7856 6.92969C13.6446 6.92969 12.6321 7.52266 11.9988 8.4383C11.3655 7.52266 10.353 6.92969 9.21201 6.92969C7.29352 6.92969 5.73828 8.6061 5.73828 10.6741C5.73828 10.7979 5.74385 10.9202 5.75474 11.041C6.06428 14.3989 10.0632 17.2248 11.9988 18.7142Z" fill="#F55041"/>
<mask id="mask0_232_1367" style="mask-type:alpha" maskUnits="userSpaceOnUse" x="5" y="6" width="14" height="13">
<path d="M11.9988 18.7142C13.9344 17.2248 17.9333 14.3989 18.2428 11.041C18.2537 10.9202 18.2593 10.7979 18.2593 10.6741C18.2593 8.6061 16.7041 6.92969 14.7856 6.92969C13.6446 6.92969 12.6321 7.52266 11.9988 8.4383C11.3655 7.52266 10.353 6.92969 9.21201 6.92969C7.29352 6.92969 5.73828 8.6061 5.73828 10.6741C5.73828 10.7979 5.74385 10.9202 5.75474 11.041C6.06428 14.3989 10.0632 17.2248 11.9988 18.7142Z" fill="#F55041"/>
</mask>
<g mask="url(#mask0_232_1367)">
<rect x="12" y="6.92969" width="7.58109" height="13.3324" fill="#E43B2C"/>
</g>
</g>
<defs>
<clipPath id="clip0_232_1367">
<rect width="24" height="24" fill="white"/>
</clipPath>
</defs>
</svg>
