<svg width="92" height="90" viewBox="0 0 92 90" fill="none" xmlns="http://www.w3.org/2000/svg">
<path d="M42.4315 50.0147C43.334 43.2057 49.3802 22.4095 65.1274 23.6382C80.8514 24.8651 80.7296 38.0044 70.6481 41.4259C60.5667 44.8475 50.0451 27.8638 63.633 12.0732C68.4441 6.48252 71.6074 2.87365 80.8514 1.54428" stroke="#9797AB" stroke-width="1.2" stroke-dasharray="2.4 2.4"/>
<path d="M25.9077 54.7222C26.2765 51.0288 25.525 40.7612 16.6164 39.2212C10.0062 38.0785 4.66848 45.6516 9.65158 49.3366C14.6347 53.0217 25.2224 47.4712 19.9072 36.722C18.0251 32.9162 13.018 30.9911 9.6524 30.1217" stroke="#9696B8" stroke-width="1.2" stroke-dasharray="2.4 2.4"/>
<ellipse cx="37.4" cy="75.0002" rx="32.4" ry="15" fill="#EEEEF2"/>
<mask id="mask0_268_5" style="mask-type:alpha" maskUnits="userSpaceOnUse" x="5" y="60" width="65" height="31">
<ellipse cx="37.278" cy="75.0002" rx="32.278" ry="15" fill="#F0F0F5"/>
</mask>
<g mask="url(#mask0_268_5)">
<ellipse cx="37.4001" cy="81.5978" rx="33.3529" ry="15.6" fill="#D7D7DF"/>
</g>
</svg>
