<svg width="108" height="108" viewBox="0 0 108 108" fill="none" xmlns="http://www.w3.org/2000/svg">
<path d="M100.4 67.854C87.6131 56.7028 70.283 49.854 51.2 49.854C32.1171 49.854 14.7869 56.7028 2 67.854" stroke="#C1C1CD" stroke-width="2.4" stroke-dasharray="3.6 7.2"/>
<path d="M17.6001 78.654C19.5483 77.2184 21.611 75.905 23.774 74.7267C31.7834 70.3638 41.1675 67.854 51.2001 67.854C61.2327 67.854 70.6168 70.3638 78.6262 74.7267C80.7892 75.905 82.8519 77.2184 84.8001 78.654" stroke="#C1C1CD" stroke-width="2.4" stroke-dasharray="3.6 7.2"/>
<path d="M72.8001 91.854C66.6929 88.0742 59.242 85.854 51.2001 85.854C43.1582 85.854 35.7073 88.0742 29.6001 91.854" stroke="#C1C1CD" stroke-width="2.4" stroke-dasharray="3.6 7.2"/>
<path d="M68.2915 24.3258L77.7127 11.392C78.9987 9.6266 81.7763 10.938 81.2303 13.0527L79.2 20.9167L84.1186 21.1935C85.7341 21.2844 86.5644 23.1696 85.5409 24.4228L74.9965 37.3331C73.5961 39.0478 70.8658 37.5215 71.5928 35.4304L74.36 27.4715H69.8919C68.273 27.4715 67.3383 25.6343 68.2915 24.3258Z" fill="#ADADBD"/>
<path d="M87.5861 37.8971L94.9047 31.5015C96.5608 30.0542 98.989 31.982 97.9551 33.9232L95.9401 37.7066L98.8517 38.6392C100.365 39.1241 100.72 41.1051 99.4675 42.0844L91.5294 48.2934C89.7762 49.6647 87.4435 47.5466 88.6399 45.6696L90.9972 41.971L88.3983 41.3062C86.8539 40.9112 86.3857 38.9461 87.5861 37.8971Z" fill="#CDCDD6"/>
</svg>
